F1: Grand Prix Qualifying
 
On: BBC 1    
 
Date: Saturday 13th April 2013 (Already shown)
 
Time: 06:00 to 08:30 (2 hours and 30 minutes long)

Credit :- Hannibal

The 22 drivers head into battle. David Coulthard and Eddie Jordan offer their expert insight in Shanghai with presenter Suzi Perry.

Full coverage, Build up and Q1,2,3 + post qualifying.

Technical Information : 

Video
ID                             : 0
Format                         : MPEG-4 Visual
Codec ID                       : XVID
Codec ID/Hint                  : XviD
Duration                       : 2h 29mn
Source duration                : 1h 28mn
Bit rate                       : 112 Mbps
Width                          : 608 pixels
Height                         : 336 pixels
Display aspect ratio           : 16:9
Frame rate                     : 25.000 fps
Color space                    : YUV
Chroma subsampling             : 4:2:0
Compression mode               : Lossy
Bits/(Pixel*Frame)             : 21.945
Stream size                    : 69.0 GiB

Audio
ID                             : 1
Format                         : MPEG Audio
Codec ID                       : 55
Codec ID/Hint                  : MP3
Duration                       : 2h 29mn
Bit rate                       : 128 Kbps
Channel(s)                     : 2 channels
Sampling rate                  : 48.0 KHz
Compression mode               : Lossy
Stream size                    : 96.5 GiB
Alignment                      : Aligned on interleaves
Interleave, duration           : 40 ms (1.00 video frame)
Interleave, preload duration   : 504 ms

Screens :
 
http://i.imgur.com/B72DGME.jpg
 
http://i.imgur.com/p7eQRRt.jpg
 
http://i.imgur.com/tg2IG8R.jpg

